name C:/MyDriveSym/Projects/mobilecap/Data\Session20210825_0002\mocap\ForceDataProcessed\walkingTS2_forces.mot
datacolumns 19
datarows 29
range 1.17700000 1.19100000
endheader 
time	R_ground_force_vx	R_ground_force_vy	R_ground_force_vz	R_ground_force_px	R_ground_force_py	R_ground_force_pz	R_ground_torque_x	R_ground_torque_y	R_ground_torque_z	L_ground_force_vx	L_ground_force_vy	L_ground_force_vz	L_ground_force_px	L_ground_force_py	L_ground_force_pz	L_ground_torque_x	L_ground_torque_y	L_ground_torque_z	
          1.17700000	          0.00000000	          0.00000000	          0.00000000	          1.31320800	          0.00000000	         -0.17050800	          0.00000000	          0.00000000	          0.00000000	         70.41675800	        604.40269000	         31.64851100	          0.92939600	          0.00600000	         -0.32315900	          0.00000000	          0.95848500	          0.00000000	
          1.17750000	          0.00000000	          0.00000000	          0.00000000	          1.31436500	          0.00000000	         -0.17057400	          0.00000000	          0.00000000	          0.00000000	         70.65958500	        604.43624800	         31.67555200	          0.92948600	          0.00600000	         -0.32317300	          0.00000000	          0.94667600	          0.00000000	
          1.17800000	          0.00000000	          0.00000000	          0.00000000	          1.31552100	          0.00000000	         -0.17064100	          0.00000000	          0.00000000	          0.00000000	         70.90244600	        604.46729300	         31.70216400	          0.92957500	          0.00600000	         -0.32318700	          0.00000000	          0.93487300	          0.00000000	
          1.17850000	          0.00000000	          0.00000000	          0.00000000	          1.31667700	          0.00000000	         -0.17070700	          0.00000000	          0.00000000	          0.00000000	         71.14533500	        604.49579700	         31.72834000	          0.92966400	          0.00600000	         -0.32320100	          0.00000000	          0.92307700	          0.00000000	
          1.17900000	          0.00000000	          0.00000000	          0.00000000	          1.31783300	          0.00000000	         -0.17077400	          0.00000000	          0.00000000	          0.00000000	         71.38824500	        604.52173200	         31.75407400	          0.92975300	          0.00600000	         -0.32321500	          0.00000000	          0.91128900	          0.00000000	
          1.17950000	          0.00000000	          0.00000000	          0.00000000	          1.31898900	          0.00000000	         -0.17084000	          0.00000000	          0.00000000	          0.00000000	         71.63116800	        604.54506800	         31.77936200	          0.92984300	          0.00600000	         -0.32322900	          0.00000000	          0.89951100	          0.00000000	
          1.18000000	          0.00000000	          0.00000000	          0.00000000	          1.32014600	          0.00000000	         -0.17090700	          0.00000000	          0.00000000	          0.00000000	         71.87409900	        604.56577600	         31.80419600	          0.92993200	          0.00600000	         -0.32324300	          0.00000000	          0.88774300	          0.00000000	
          1.18050000	          0.00000000	          0.00000000	          0.00000000	          1.32130200	          0.00000000	         -0.17097300	          0.00000000	          0.00000000	          0.00000000	         72.11702800	        604.58382700	         31.82857100	          0.93002100	          0.00600000	         -0.32325600	          0.00000000	          0.87598600	          0.00000000	
          1.18100000	          0.00000000	          0.00000000	          0.00000000	          1.32245800	          0.00000000	         -0.17104000	          0.00000000	          0.00000000	          0.00000000	         72.35995100	        604.59919100	         31.85248100	          0.93011100	          0.00600000	         -0.32326900	          0.00000000	          0.86424100	          0.00000000	
          1.18150000	          0.00000000	          0.00000000	          0.00000000	          1.32361400	          0.00000000	         -0.17110600	          0.00000000	          0.00000000	          0.00000000	         72.60285900	        604.61183800	         31.87592000	          0.93020000	          0.00600000	         -0.32328300	          0.00000000	          0.85250900	          0.00000000	
          1.18200000	          0.00000000	          0.00000000	          0.00000000	          1.32477000	          0.00000000	         -0.17117300	          0.00000000	          0.00000000	          0.00000000	         72.84574500	        604.62173900	         31.89888200	          0.93029000	          0.00600000	         -0.32329600	          0.00000000	          0.84079200	          0.00000000	
          1.18250000	          0.00000000	          0.00000000	          0.00000000	          1.32592700	          0.00000000	         -0.17123900	          0.00000000	          0.00000000	          0.00000000	         73.08860100	        604.62886400	         31.92136200	          0.93037900	          0.00600000	         -0.32330900	          0.00000000	          0.82909000	          0.00000000	
          1.18300000	          0.00000000	          0.00000000	          0.00000000	          1.32708300	          0.00000000	         -0.17130600	          0.00000000	          0.00000000	          0.00000000	         73.33142100	        604.63318200	         31.94335300	          0.93046900	          0.00600000	         -0.32332200	          0.00000000	          0.81740400	          0.00000000	
          1.18350000	          0.00000000	          0.00000000	          0.00000000	          1.32823900	          0.00000000	         -0.17137200	          0.00000000	          0.00000000	          0.00000000	         73.57419600	        604.63466200	         31.96485000	          0.93055800	          0.00600000	         -0.32333400	          0.00000000	          0.80573500	          0.00000000	
          1.18400000	          0.00000000	          0.00000000	          0.00000000	          1.32939500	          0.00000000	         -0.17143900	          0.00000000	          0.00000000	          0.00000000	         73.81691900	        604.63327500	         31.98584700	          0.93064800	          0.00600000	         -0.32334700	          0.00000000	          0.79408400	          0.00000000	
          1.18450000	          0.00000000	          0.00000000	          0.00000000	          1.33055100	          0.00000000	         -0.17150500	          0.00000000	          0.00000000	          0.00000000	         74.05958300	        604.62898900	         32.00633800	          0.93073700	          0.00600000	         -0.32336000	          0.00000000	          0.78245300	          0.00000000	
          1.18500000	          0.00000000	          0.00000000	          0.00000000	          1.33170700	          0.00000000	         -0.17157200	          0.00000000	          0.00000000	          0.00000000	         74.30217900	        604.62177500	         32.02631800	          0.93082700	          0.00600000	         -0.32337200	          0.00000000	          0.77084100	          0.00000000	
          1.18550000	          0.00000000	          0.00000000	          0.00000000	          1.33286400	          0.00000000	         -0.17163800	          0.00000000	          0.00000000	          0.00000000	         74.54470100	        604.61159900	         32.04578000	          0.93091600	          0.00600000	         -0.32338400	          0.00000000	          0.75925100	          0.00000000	
          1.18600000	          0.00000000	          0.00000000	          0.00000000	          1.33402000	          0.00000000	         -0.17170500	          0.00000000	          0.00000000	          0.00000000	         74.78713900	        604.59843200	         32.06471900	          0.93100600	          0.00600000	         -0.32339600	          0.00000000	          0.74768200	          0.00000000	
          1.18650000	          0.00000000	          0.00000000	          0.00000000	          1.33517600	          0.00000000	         -0.17177100	          0.00000000	          0.00000000	          0.00000000	         75.02948600	        604.58224200	         32.08313000	          0.93109600	          0.00600000	         -0.32340800	          0.00000000	          0.73613700	          0.00000000	
          1.18700000	          0.00000000	          0.00000000	          0.00000000	          1.33633200	          0.00000000	         -0.17183800	          0.00000000	          0.00000000	          0.00000000	         75.27173400	        604.56299700	         32.10100700	          0.93118500	          0.00600000	         -0.32342000	          0.00000000	          0.72461500	          0.00000000	
          1.18750000	          0.00000000	          0.00000000	          0.00000000	          1.33748800	          0.00000000	         -0.17190400	          0.00000000	          0.00000000	          0.00000000	         75.51387500	        604.54066500	         32.11834400	          0.93127500	          0.00600000	         -0.32343200	          0.00000000	          0.71311800	          0.00000000	
          1.18800000	          0.00000000	          0.00000000	          0.00000000	          1.33864500	          0.00000000	         -0.17197100	          0.00000000	          0.00000000	          0.00000000	         75.75590100	        604.51521500	         32.13513600	          0.93136500	          0.00600000	         -0.32344400	          0.00000000	          0.70164800	          0.00000000	
          1.18850000	          0.00000000	          0.00000000	          0.00000000	          1.33980100	          0.00000000	         -0.17203700	          0.00000000	          0.00000000	          0.00000000	         75.99780400	        604.48661500	         32.15137700	          0.93145500	          0.00600000	         -0.32345500	          0.00000000	          0.69020400	          0.00000000	
          1.18900000	          0.00000000	          0.00000000	          0.00000000	          1.34095700	          0.00000000	         -0.17210400	          0.00000000	          0.00000000	          0.00000000	         76.23957400	        604.45483200	         32.16706300	          0.93154400	          0.00600000	         -0.32346600	          0.00000000	          0.67878700	          0.00000000	
          1.18950000	          0.00000000	          0.00000000	          0.00000000	          1.34211300	          0.00000000	         -0.17217000	          0.00000000	          0.00000000	          0.00000000	         76.48120400	        604.41983400	         32.18218600	          0.93163400	          0.00600000	         -0.32347800	          0.00000000	          0.66740000	          0.00000000	
          1.19000000	          0.00000000	          0.00000000	          0.00000000	          1.34326900	          0.00000000	         -0.17223700	          0.00000000	          0.00000000	          0.00000000	         76.72268600	        604.38158800	         32.19674300	          0.93172400	          0.00600000	         -0.32348900	          0.00000000	          0.65604200	          0.00000000	
          1.19050000	          0.00000000	          0.00000000	          0.00000000	          1.34442500	          0.00000000	         -0.17230300	          0.00000000	          0.00000000	          0.00000000	         76.96401000	        604.34006300	         32.21072800	          0.93181400	          0.00600000	         -0.32350000	          0.00000000	          0.64471400	          0.00000000	
          1.19100000	          0.00000000	          0.00000000	          0.00000000	          1.34558200	          0.00000000	         -0.17237000	          0.00000000	          0.00000000	          0.00000000	         77.20516800	        604.29522400	         32.22413500	          0.93190400	          0.00600000	         -0.32351100	          0.00000000	          0.63341800	          0.00000000	
